<svg width="28" height="28" viewBox="0 0 28 28" fill="none" xmlns="http://www.w3.org/2000/svg">
<path d="M14.0002 2.38C7.5835 2.38 2.3335 7.61834 2.3335 14.07C2.3335 19.9033 6.6035 24.745 12.1802 25.62V17.4533H9.21683V14.07H12.1802V11.4917C12.1802 8.56334 13.9185 6.95334 16.5902 6.95334C17.8618 6.95334 19.1918 7.175 19.1918 7.175V10.0567H17.7218C16.2752 10.0567 15.8202 10.955 15.8202 11.8767V14.07H19.0635L18.5385 17.4533H15.8202V25.62C18.5693 25.1858 21.0727 23.7831 22.8784 21.6651C24.6841 19.547 25.6731 16.8533 25.6668 14.07C25.6668 7.61834 20.4168 2.38 14.0002 2.38Z" fill="black"/>
</svg>
