<svg width="28" height="28" viewBox="0 0 28 28" fill="none" xmlns="http://www.w3.org/2000/svg">
<path d="M26.2035 7.00002C25.3052 7.40835 24.3369 7.67669 23.3335 7.80502C24.3602 7.18669 25.1535 6.20669 25.5269 5.02835C24.5585 5.61169 23.4852 6.02002 22.3535 6.25335C21.4319 5.25002 20.1369 4.66669 18.6669 4.66669C15.9252 4.66669 13.6852 6.90669 13.6852 9.67169C13.6852 10.0684 13.7319 10.4534 13.8135 10.815C9.66021 10.605 5.96187 8.61002 3.50021 5.58835C3.06854 6.32335 2.82354 7.18669 2.82354 8.09669C2.82354 9.83502 3.69854 11.375 5.05187 12.25C4.22354 12.25 3.45354 12.0167 2.77688 11.6667V11.7017C2.77688 14.1284 4.50354 16.1584 6.79021 16.6134C6.05606 16.8143 5.28532 16.8422 4.53854 16.695C4.85542 17.6896 5.476 18.5598 6.31306 19.1834C7.15012 19.807 8.16156 20.1527 9.20521 20.1717C7.43611 21.5722 5.2432 22.3292 2.98687 22.3184C2.59021 22.3184 2.19354 22.295 1.79688 22.2484C4.01354 23.6717 6.65021 24.5 9.47354 24.5C18.6669 24.5 23.7185 16.87 23.7185 10.255C23.7185 10.0334 23.7185 9.82335 23.7069 9.60169C24.6869 8.90169 25.5269 8.01502 26.2035 7.00002Z" fill="black"/>
</svg>
